<?xml version="1.0" encoding="utf-8"?>
<svg version="1.1" id="Layer_1" xmlns="http://www.w3.org/2000/svg" xmlns:xlink="http://www.w3.org/1999/xlink" x="0px" y="0px"
   viewBox="0 0 95 95" enable-background="new 0 0 95 95" xml:space="preserve">
<g>
  <g>
    <path fill="#E51E26" d="M79.5,93.5c-0.3,0-0.6-0.1-0.9-0.2L47.5,77.7L16.4,93.3c-0.7,0.3-1.5,0.3-2.1-0.2c-0.6-0.5-0.9-1.3-0.7-2
      l7.8-31L2,36.8c-0.5-0.6-0.6-1.3-0.3-2s0.9-1.2,1.6-1.3l27-3.9L45.8,2.4c0.7-1.2,2.8-1.2,3.5,0l15.5,27.2l27,3.9
      c0.7,0.1,1.3,0.6,1.6,1.3s0.1,1.4-0.3,2L73.7,60l7.6,30.5c0.2,0.3,0.3,0.6,0.3,1C81.6,92.6,80.7,93.5,79.5,93.5
      C79.6,93.5,79.5,93.5,79.5,93.5z"/>
  </g>
</g>
</svg>

