<svg xmlns="http://www.w3.org/2000/svg" viewBox="208 8.9 543.4 542.3"><path fill="none" d="M485.3 434.4l165.6 83.1-40.7-163.9c-1.2-3.5 0-7.7 2.4-10.6l104.3-125-143.8-20.6c-3.5-.6-6.5-2.9-8.8-5.9l-84.1-147v388.7c1.7.1 3.4.7 5.1 1.2z"/><path fill="#ADADAD" d="M750.6 205.1c-1.8-4.1-5.3-7.1-9.4-7.7l-159.2-23-91.4-160.3c-2.2-3.8-6.7-5.5-11.1-5.3h.8v35.7l84.1 147c2.4 2.9 5.3 5.3 8.8 5.9L717 218.1l-104.3 125c-2.4 2.9-3.5 7.1-2.4 10.6L651 517.6l-165.6-83.1c-1.7-.6-3.4-1.1-5.1-1.2v24.9l183 91.8c1.8.6 3.5 1.2 5.3 1.2 7.1 0 12.4-5.3 12.4-11.8 0-2.4-.6-4.1-1.8-5.9l-44.8-179.8 114.4-136.8c2.4-3.5 3.5-7.6 1.8-11.8zM295.7 550c-1.6.7-3.4 1.1-5.1 1.2 2 .1 4.1-.4 6.1-1.2l182.8-91.7-.5-.3-183.3 92z"/><path fill="#E51E26" d="M480.2 44.6V8.9h-.8c-4.2-.1-8.4 1.7-10.5 5.3l-91.4 160.3-159.2 23c-4.1.6-7.7 3.5-9.4 7.7s-1.2 8.3 1.8 11.8l114.4 137.3-46 182.7c-1.2 4.1.6 8.8 4.1 11.8 2.1 1.8 4.7 2.5 7.3 2.4 1.7-.1 3.4-.5 5.1-1.2L479 458l.5.3.7.4V44.6z"/></svg>