<?xml version="1.0" encoding="utf-8"?>
<!-- Generator: Adobe Illustrator 18.1.1, SVG Export Plug-In . SVG Version: 6.00 Build 0)  -->
<svg version="1.1" id="Layer_1" xmlns="http://www.w3.org/2000/svg" xmlns:xlink="http://www.w3.org/1999/xlink" x="0px" y="0px"
	 width="150px" height="124px" viewBox="-404 219 150 124" enable-background="new -404 219 150 124" xml:space="preserve">
<rect x="-741.3" y="89.2" display="none" width="881.3" height="535.5"/>
<g>
	<path fill="#FFFFFF" d="M-318.3,249.1c-2.5,0-4.6,1-6.1,2.7v-11.3h-4.6v34.4h4.6v-14.1c0-4.9,1.9-7.3,5.7-7.3
		c3.9,0,5.7,2.4,5.7,7.3v14.1h4.6v-14.3C-308.3,253-312.1,249.1-318.3,249.1z M-289,263.7c0,4.9-1.9,7.4-5.7,7.4s-5.7-2.5-5.7-7.4
		v-14.2h-4.6v14.4c0,7.4,3.6,11.4,10.3,11.4s10.3-3.9,10.3-11.4v-14.4h-4.6V263.7z M-273.2,242.2h-4.6v7.3h-3.4v4.1h3.4v16
		c0,1.4,0,5.7,5.5,5.7c1.4,0,3.1-0.4,4.7-0.8v-3.9c-0.9,0.3-2.4,0.7-3.5,0.7c-2.1,0-2.2-0.6-2.2-2.5v-15.2h5.7v-4.1h-5.7V242.2z
		 M-257.5,271.4c-2.1,0-2.2-0.6-2.2-2.5v-28.4h-4.6v29.2c0,1.4,0,5.7,5.5,5.7c1.4,0,3.1-0.4,4.7-0.8v-3.9
		C-254.9,270.9-256.4,271.4-257.5,271.4z M-340.4,260L-340.4,260c-3.1-0.9-5.9-1.8-5.9-3.7v-0.1c0-1.8,1.7-3.1,4.2-3.1
		c2.2,0,4.7,0.8,6.9,2.3l0.3,0.2l2.2-3.5l-0.4-0.2c-2.6-1.7-6-2.8-9-2.8c-5.2,0-8.8,3.1-8.8,7.4v0.1c0,4.9,4.8,6.3,8.4,7.3
		c3.2,0.9,5.7,1.8,5.7,3.8v0.1c0,2-1.8,3.4-4.6,3.4c-2.7,0-5.5-1-8.1-3l-0.4-0.3l0,0l-2.2,3.5l0.2,0.1c2.8,2.3,6.8,3.7,10.4,3.7
		c5.5,0,9.1-3.1,9.1-7.8v-0.1C-332.2,262.4-337.1,261-340.4,260z"/>
	<path fill="#E30613" d="M-404,279.6l7.7-18.1l0,0h-2l0,0c1.3-3.6,3-7.1,5.4-9.5c4.6-4.6,12-4.6,16.5,0c4.6,4.6,4.6,12,0,16.5
		c-2.3,2.3-5.8,4.1-9.5,5.4l0,0l0-2L-404,279.6z"/>
	<path fill="#FFFFFF" d="M-362.2,273.1L-362.2,273.1l5.7-9.1c-1.3-1.9-2.1-4.4-2.1-7.4v-0.1c0-3.3,1.2-6.1,2.8-8.6
		c4-6.3,16.6-21.4,10.8-27.2l-0.1-0.1c-5.9-5.9-20.9,6.8-27.2,10.8c-2.5,1.6-5.4,2.8-8.6,2.8h-0.1c-3.1,0-5.5-0.8-7.4-2.1l-9.1,5.7
		l0,0l-2.2,1.4l8.4,7.2l0.4,0.4c5.5-2.5,12.3-1.5,16.8,3c4.5,4.5,5.5,11.3,3,16.8l0.4,0.4l7.2,8.4L-362.2,273.1z M-361.3,236.8
		c-2-2-2-5.1,0-7.1c2-2,5.1-2,7.1,0c2,2,1.9,5.1,0,7.1C-356.2,238.8-359.3,238.8-361.3,236.8z"/>
</g>
<g>
	<g>
		<path fill="#E30613" d="M-404,329l4.1-9.6l0,0h-1.1l0,0c0.7-1.9,1.6-3.8,2.8-5c2.4-2.4,6.3-2.4,8.7,0s2.4,6.3,0,8.7
			c-1.2,1.2-3.1,2.2-5,2.8l0,0l0-1.1L-404,329z"/>
		<path fill="#FFFFFF" d="M-381.9,325.6L-381.9,325.6l3-4.8c-0.7-1-1.1-2.3-1.1-3.9v0c0-1.7,0.6-3.2,1.5-4.6
			c2.1-3.4,8.8-11.3,5.7-14.4l-0.1-0.1c-3.1-3.1-11,3.6-14.4,5.7c-1.3,0.8-2.8,1.5-4.6,1.5h0c-1.6,0-2.9-0.4-3.9-1.1l-4.8,3l0,0
			l-1.2,0.7l4.4,3.8l0.2,0.2c2.9-1.3,6.5-0.8,8.9,1.6c2.4,2.4,2.9,6,1.6,8.9l0.2,0.2l3.8,4.4L-381.9,325.6z M-381.4,306.4
			c-1-1-1-2.7,0-3.7c1-1,2.7-1,3.7,0c1,1,1,2.7,0,3.7C-378.7,307.5-380.4,307.5-381.4,306.4z"/>
	</g>
</g>
</svg>
