<?xml version="1.0" encoding="utf-8"?>
<!-- Generator: Adobe Illustrator 18.1.1, SVG Export Plug-In . SVG Version: 6.00 Build 0)  -->
<svg version="1.1" id="Layer_1" xmlns="http://www.w3.org/2000/svg" xmlns:xlink="http://www.w3.org/1999/xlink" x="0px" y="0px"
	 width="283.5px" height="144.9px" viewBox="0 0 283.5 144.9" enable-background="new 0 0 283.5 144.9" xml:space="preserve">
<g>
	<path fill="#FFFFFF" d="M162,56.9c-4.8,0-8.7,1.9-11.6,5V40.5h-8.6v64.9h8.6V78.7c0-9.3,3.5-13.8,10.8-13.8
		c7.3,0,10.8,4.5,10.8,13.8v26.7h8.6V78.4C180.8,64.3,173.7,56.9,162,56.9z M217.3,84.5c0,9.3-3.5,14.1-10.8,14.1
		s-10.8-4.8-10.8-14.1V57.7H187v27.2c0,14.1,6.7,21.5,19.5,21.5s19.5-7.4,19.5-21.5V57.7h-8.6V84.5z M247.2,43.8h-8.7v13.9h-6.4v7.8
		h6.4v30.3c0,2.6,0,10.7,10.4,10.7c2.6,0,5.8-0.7,8.9-1.6v-7.3c-1.7,0.5-4.5,1.4-6.6,1.4c-4,0-4.2-1.2-4.2-4.8V65.5h10.7v-7.8h-10.7
		V43.8z M276.9,99c-4,0-4.2-1.2-4.2-4.8V40.5h-8.7v55.3c0,2.6,0,10.7,10.4,10.7c2.6,0,5.8-0.7,8.9-1.6v-7.3
		C281.8,98.1,278.9,99,276.9,99z M120.2,77.5l-0.2-0.1c-5.7-1.7-11-3.4-11-7v-0.2c0-3.5,3.2-5.8,8-5.8c4.2,0,8.8,1.5,13.1,4.3
		l0.6,0.4l4.2-6.6l-0.7-0.5c-4.9-3.3-11.3-5.2-17-5.2c-9.7,0-16.5,5.8-16.5,14.1v0.2c0,9.3,9.2,11.9,15.9,13.8
		c6.1,1.7,10.8,3.3,10.8,7.2v0.2c0,3.8-3.5,6.4-8.6,6.4c-5.1,0-10.4-2-15.4-5.7l-0.7-0.5l0,0l-4.1,6.6l0.3,0.3
		c5.3,4.3,12.8,7,19.6,7c10.3,0,17.3-5.9,17.3-14.7v-0.2C135.6,82.1,126.4,79.3,120.2,77.5z"/>
	<path fill="#E30613" d="M0,114.4l14.6-34.2l0,0h-3.8l0,0c2.4-6.9,5.7-13.4,10.1-17.9c8.6-8.6,22.6-8.6,31.2,0s8.6,22.6,0,31.2
		c-4.4,4.4-11,7.7-17.9,10.1l0,0l0-3.8L0,114.4z"/>
	<path fill="#FFFFFF" d="M79.1,102.3L79.1,102.3l10.9-17.2c-2.4-3.6-3.9-8.2-3.9-14v-0.2c0-6.2,2.2-11.5,5.2-16.3
		c7.5-12,31.4-40.4,20.3-51.5l-0.2-0.2C100.2-8.2,71.8,15.7,59.8,23.2c-4.8,3-10.2,5.2-16.3,5.2h-0.2c-5.8,0-10.4-1.5-14-3.9
		L12.1,35.3l0,0L8,38l15.9,13.6l0.8,0.8c10.4-4.8,23.2-2.9,31.8,5.7c8.6,8.6,10.5,21.4,5.7,31.8l0.8,0.8l13.6,15.9L79.1,102.3z
		 M80.7,33.7c-3.7-3.7-3.7-9.7,0-13.4c3.7-3.7,9.7-3.7,13.4,0c3.7,3.7,3.7,9.7,0,13.4C90.4,37.4,84.4,37.4,80.7,33.7z"/>
	<path fill="#FFFFFF" d="M109.6,126.2c0-2-1.6-2.8-3.8-2.8c-1.7,0-3.8,0.5-4,2.4h1.7c0.1-0.9,1-1.3,2.1-1.3c1.5,0,2.5,0.5,2.5,2v0.2
		c-0.7,0-1.5,0-2.7,0c-2.8,0.1-4.1,1-4.1,2.6c0,1.5,1.4,2.6,3.4,2.6c1.6,0,2.6-0.2,3.5-1.4h0c0,0.4,0,0.8,0.1,1.1h1.5
		c0-0.4-0.1-0.9-0.1-1.5V126.2z M108.1,128.1c0,1.9-1.1,2.8-3,2.8c-1.5,0-2.2-0.8-2.2-1.6c0-1.2,1.1-1.4,2.7-1.5c1.2,0,2,0,2.5,0
		V128.1z M116.4,123.4c-1.4,0-2.6,0.5-3.5,1.7h0c0-0.6,0-1-0.1-1.4h-1.5c0,0.6,0.1,1.2,0.1,1.8v6.2h1.6v-3.8c0-2.5,1.7-3.4,3.2-3.4
		c1.5,0,2.6,1,2.6,2.8v4.5h1.6v-4.5C120.3,124.6,118.7,123.4,116.4,123.4z M209.4,130.9c-2,0-3-1.5-3-3.2c0-2.1,1.4-3.2,3.1-3.2
		c1.3,0,2.2,0.6,2.4,1.8h1.7c-0.3-2.1-2.1-2.9-4.1-2.9c-2.9,0-4.7,1.6-4.7,4.3c0,2.6,1.6,4.3,4.6,4.3c2,0,4.1-0.9,4.3-2.9h-1.7
		C211.8,130.2,210.8,130.9,209.4,130.9z M219.8,123.4c-3.4,0-5,1.7-5,4.3c0,2.7,1.8,4.3,5,4.3c3.2,0,5-1.6,5-4.3
		C224.8,124.9,223,123.4,219.8,123.4z M219.8,130.9c-2.2,0-3.4-1.4-3.4-3.2c0-1.8,1.2-3.2,3.4-3.2c2.2,0,3.3,1.4,3.3,3.2
		C223.1,129.5,221.9,130.9,219.8,130.9z M237.2,123.4c-1.5,0-2.7,0.9-3.3,2c-0.5-1.4-1.6-2-2.9-2c-1.3,0-2.4,0.5-3.4,1.7h0
		c0-0.6,0-1-0.1-1.4h-1.5c0,0.6,0.1,1.2,0.1,1.8v6.2h1.6v-3.9c0-2.4,1.5-3.3,2.9-3.3c1.4,0,2.2,1,2.2,3.1v4.1h1.6V128
		c0-2.6,1.4-3.6,2.8-3.6c1.7,0,2.3,1.3,2.3,3.2v4h1.6v-4.6C240.9,124.5,239.5,123.4,237.2,123.4z M247.8,123.4
		c-1.4,0-2.7,0.5-3.5,1.4c0-0.5,0-0.8-0.1-1.1h-1.6c0,0.6,0.1,1.2,0.1,1.8v9.2h1.6v-4.1c1,1,2.2,1.3,3.5,1.3c2.4,0,4.5-1.7,4.5-4.3
		C252.3,125.1,250.2,123.4,247.8,123.4z M247.5,130.9c-1.9,0-3.2-1.2-3.2-3.2c0-2,1.3-3.2,3.2-3.2c1.9,0,3.2,1.2,3.2,3.2
		C250.6,129.7,249.3,130.9,247.5,130.9z M261.9,126.2c0-2-1.6-2.8-3.8-2.8c-1.7,0-3.8,0.5-4,2.4h1.7c0.1-0.9,1-1.3,2.1-1.3
		c1.5,0,2.5,0.5,2.5,2v0.2c-0.7,0-1.5,0-2.7,0c-2.8,0.1-4.1,1-4.1,2.6c0,1.5,1.4,2.6,3.4,2.6c1.6,0,2.6-0.2,3.5-1.4h0
		c0,0.4,0,0.8,0.1,1.1h1.5c0-0.4-0.1-0.9-0.1-1.5V126.2z M260.3,128.1c0,1.9-1.1,2.8-3,2.8c-1.5,0-2.2-0.8-2.2-1.6
		c0-1.2,1.1-1.4,2.7-1.5c1.2,0,2,0,2.5,0V128.1z M268.7,123.4c-1.4,0-2.6,0.5-3.5,1.7h0c0-0.6,0-1-0.1-1.4h-1.5
		c0,0.6,0.1,1.2,0.1,1.8v6.2h1.6v-3.8c0-2.5,1.7-3.4,3.2-3.4c1.5,0,2.6,1,2.6,2.8v4.5h1.6v-4.5C272.5,124.6,270.9,123.4,268.7,123.4
		z M281.8,123.7l-3.4,6.5l-3.4-6.5h-1.8l4.4,8l-1.7,3.1h1.7l5.8-11.1H281.8z M178.1,128.8c0-4.4-3.5-5.9-7.7-5.9
		c-3.5,0-7.5,1-7.9,4.8h3.7c0.2-1.5,1.7-2.4,3.9-2.4c2.9,0,4.5,1.1,4.5,3.6l0,0.4c-1.4,0-3.1,0-4.6,0c-5.5,0.1-8.7,1.5-8.7,5.3
		c0,2.7,2.3,5,6.7,5c2.9,0,5.1-0.6,6.8-2.8c0,0.7,0,1.5,0.1,2.2h3.3c-0.1-0.9-0.1-1.9-0.1-3V128.8z M174.6,131.9
		c0,3.3-2,5.3-5.7,5.3c-2.8,0-3.9-1.5-3.9-2.8c0-2.1,2-2.7,5.2-2.8c1.4,0,3-0.1,4.4-0.1L174.6,131.9z M134.6,137.2
		c-3,0-5.3-1.9-5.4-5.1h14.2v-0.9c0-5.7-3.7-8.3-8.6-8.3c-6.3,0-9.2,3.4-9.2,8.6c0,4.7,2.8,8.2,9.1,8.2c3.5,0,7.5-1.3,8.2-5.1h-3.6
		C138.6,136.3,136.7,137.2,134.6,137.2z M134.6,125.2c2.6,0,4.9,1.2,5.1,4.5h-10.4C129.6,126.6,131.8,125.2,134.6,125.2z
		 M153.4,122.8c-2.3,0-4.7,0.6-6.5,2.7v-8.9h-3.5v18.7c0,1.1-0.1,2.5-0.1,3.7h3.5c0.1-0.7,0.1-1.4,0.1-2.2c1.5,1.8,3.9,2.7,6.5,2.7
		c4.9,0,8.4-3.5,8.4-8.3C161.7,125.5,157.3,122.8,153.4,122.8z M152.4,137.1c-3.3,0-5.5-2.4-5.5-5.9c0-3.6,2.3-5.9,5.5-5.9
		c3.3,0,5.5,2.4,5.5,5.9C158,134.8,155.7,137.1,152.4,137.1z M186.9,135.5l-6.1-12.1h-4.1l8.2,15.5l-3.1,6h4l10.9-21.5h-3.7
		L186.9,135.5z M199,125v-0.9h0.5v-0.2H199v-0.4h-0.3v0.4h-0.4v0.2h0.4v0.9c0,0.4,0.2,0.5,0.5,0.5c0.1,0,0.2,0,0.3,0v-0.2
		c-0.1,0-0.2,0-0.2,0C199.1,125.3,199,125.2,199,125z M202.1,123.8c-0.3,0-0.5,0.2-0.7,0.4c-0.1-0.3-0.3-0.4-0.6-0.4
		c-0.3,0-0.5,0.1-0.7,0.3h0c0-0.1,0-0.2,0-0.3h-0.3c0,0.1,0,0.2,0,0.4v1.2h0.3v-0.8c0-0.5,0.3-0.7,0.6-0.7c0.3,0,0.4,0.2,0.4,0.6
		v0.8h0.3v-0.7c0-0.5,0.3-0.7,0.6-0.7c0.3,0,0.5,0.3,0.5,0.6v0.8h0.3v-0.9C202.9,124.1,202.6,123.8,202.1,123.8z"/>
</g>
</svg>
